<svg xmlns="http://www.w3.org/2000/svg" viewBox="0 0 900 700">
<defs><linearGradient id="b" x1="0" y1="0" x2="1" y2="1"><stop stop-color="#091e31"/><stop offset="1" stop-color="#153149"/></linearGradient><linearGradient id="g" x1="0" y1="0" x2="1" y2="1"><stop stop-color="#ffe49a"/><stop offset=".5" stop-color="#d6a84f"/><stop offset="1" stop-color="#8a5b16"/></linearGradient></defs>
<rect width="900" height="700" rx="32" fill="url(#b)"/>
<g fill="#b2bfca" opacity=".28"><path d="M70 520V290h62v230zM150 520V220h70v300zM242 520V330h60v190zM322 520V160h72v360zM415 520V285h60v235zM495 520V205h75v315zM592 520V250h72v270zM685 520V300h55v220zM754 520V230h62v290z"/><path d="M95 280h15l28-90 28 90h15l28-120 28 120" fill="none" stroke="#d6a84f" stroke-width="4"/></g>
<path d="M70 545h745" stroke="#d6a84f" stroke-opacity=".5"/>
<g transform="translate(250 380)"><rect width="180" height="135" rx="14" fill="url(#g)"/><text x="90" y="55" text-anchor="middle" font-family="Georgia,serif" font-size="27" fill="#6b420a">DUBAI</text><text x="90" y="88" text-anchor="middle" font-family="Arial,sans-serif" font-size="18" fill="#6b420a" font-weight="700">GOLD SOUQ</text></g>
<g fill="#e6c36f"><circle cx="560" cy="565" r="6"/><circle cx="595" cy="565" r="4"/><circle cx="625" cy="565" r="5"/></g>
</svg>
